<?xml version="1.0" encoding="UTF-8" standalone="no"?>
<svg version="1.1" xmlns="http://www.w3.org/2000/svg" xmlns:xlink="http://www.w3.org/1999/xlink" xmlns:i="http://ns.adobe.com/AdobeIllustrator/10.0/" width="560" height="650">
	<defs>
		<clipPath id="clip_dp_001" clipPathUnits="userSpaceOnUse" clip-rule="nonzero">
			<path d="M 0,0 L 560,0 L 560,650 L 0,650 Z " clip-rule="nonzero"/>
		</clipPath>
	</defs>
	<g id="dp_dp001" clip-path="url(#clip_dp_001)">
		<g id="clip" i:layer="yes">
			<image id="dp_image002" transform="matrix(1,0,0,1,29.84,14.216)" fill="none" fill-opacity="0.239216" x="0" y="0" width="532" height="620" xlink:href="Draw6FCA_images/Draw6FCA_001.png"/>
			<path id="dp_path003" fill="#eb9b36" fill-rule="evenodd" stroke="none" stroke-width="0" d="M 92.6453,306.24 C 71.5573,342.317 41.236,361.475 7.056,367.059 C 15.176,371.119 22.6107,371.695 29.6707,370.372 C 25.728,373.529 21.4773,376.583 16.892,379.524 C 24.2573,380.031 31.144,379.576 37.228,377.499 C 36.1307,381.493 32.348,384.053 27.5987,386.096 L 53.24,389.092 C 96.1693,409.732 137.476,394.093 151.975,356.261 C 171.132,333.071 121.537,271.872 92.6453,306.24 Z "/>
			<path id="dp_path004" fill="#ff9f92" fill-rule="evenodd" stroke="none" stroke-width="0" d="M 68.3107,394.901 C 57.7227,378.752 77.624,355.427 46.112,353.027 C 34.9533,360.735 21.1667,363.951 7.056,367.059 C 15.176,371.119 21.76,371.999 28.8213,370.676 C 24.8787,373.835 21.4773,376.583 16.892,379.524 C 24.2573,380.031 31.144,379.576 37.228,377.499 C 36.1307,381.493 32.348,384.053 27.5987,386.096 L 53.24,389.092 C 58.3,391.524 63.4493,395.064 68.3107,394.901 Z "/>
			<path id="dp_path005" fill="none" fill-rule="evenodd" stroke="#56330f" stroke-width="2.66667" stroke-linecap="round" d="M 100.599,289.815 C 85.2613,336.436 41.236,361.475 7.056,367.059 C 15.176,371.119 22.6107,371.695 29.6707,370.372 C 25.728,373.529 21.4773,376.583 16.892,379.524 C 24.2573,380.031 31.144,379.576 37.228,377.499 C 36.1307,381.493 32.348,384.053 27.5987,386.096 L 53.24,389.092 C 96.1693,409.732 137.476,394.093 151.975,356.261"/>
			<path id="dp_path006" fill="none" fill-rule="evenodd" stroke="#56330f" stroke-width="2.66667" stroke-linecap="round" d="M 320.727,130.709 C 326.264,139.867 324.88,157.227 324.88,157.227"/>
			<path id="dp_path007" fill="#ac7228" fill-rule="evenodd" stroke="none" stroke-width="0" d="M 365.067,518.067 C 345.667,663.759 60.844,580.851 85.0667,398.867 C 101.956,370.863 111.187,336.005 87.4667,271.667 C 95.6987,144.724 297.768,176.744 344.667,220.067 C 376.627,240.047 402.364,267.625 425.333,293 C 414.889,284.687 404.444,277.517 394,276.333 C 411.76,314.783 444.472,322.115 468.667,355.667 C 458.667,347.397 448.667,341.397 438.667,341.667 C 464.724,362.04 477.813,381.693 484.667,401"/>
			<path id="dp_path008" fill="#eb9b36" fill-rule="evenodd" stroke="none" stroke-width="0" d="M 301.401,327.705 C 292.951,368.631 270.343,396.473 239.74,412.689 C 248.732,413.941 255.96,412.111 262.228,408.601 C 259.501,412.853 256.449,417.105 253.044,421.357 C 260.185,419.484 266.565,416.852 271.667,412.939 C 271.904,417.075 269.137,420.709 265.289,424.163 L 290.544,418.805 C 337.819,424.643 371.96,396.621 373.607,356.14 C 384.347,328.043 317.793,285.905 301.401,327.705 Z "/>
			<path id="dp_path009" fill="#ff9f92" fill-rule="evenodd" stroke="none" stroke-width="0" d="M 306.68,419.493 C 291.487,407.576 302.889,379.113 272.263,386.911 C 264.153,397.781 252.117,405.235 239.74,412.689 C 248.732,413.941 255.252,412.671 261.52,409.161 C 258.793,413.413 256.449,417.105 253.044,421.357 C 260.185,419.484 266.565,416.852 271.667,412.939 C 271.904,417.075 269.137,420.709 265.289,424.163 L 290.544,418.805 C 296.116,419.493 302.127,421.201 306.68,419.493 Z "/>
			<path id="dp_path010" fill="none" fill-rule="evenodd" stroke="#56330f" stroke-width="2.66667" stroke-linecap="round" d="M 301.401,327.705 C 292.951,368.631 270.343,396.473 239.74,412.689 C 248.732,413.941 255.96,412.111 262.228,408.601 C 259.501,412.853 256.449,417.105 253.044,421.357 C 260.185,419.484 266.565,416.852 271.667,412.939 C 271.904,417.075 269.137,420.709 265.289,424.163 L 290.544,418.805 C 337.819,424.643 371.96,396.621 373.607,356.14"/>
			<path id="dp_path011" fill="#ac7228" fill-rule="evenodd" stroke="none" stroke-width="0" d="M 459.472,360.751 C 472.369,381.515 562.585,396.757 554.667,474.867 C 543.577,459.177 527.124,440.864 509.472,438.301 C 456.215,439.792 420.827,361.979 459.472,360.751 Z "/>
			<path id="dp_path012" fill="#704b1a" fill-rule="evenodd" stroke="none" stroke-width="0" d="M 459.472,360.751 C 466.004,371.267 491.74,382.907 506.029,400.037 C 525,421.916 532.972,430.381 524.013,441.363 C 523.301,446.043 514.029,438.963 509.472,438.301 C 456.215,439.792 420.827,361.979 459.472,360.751 Z "/>
			<path id="dp_path013" fill="none" fill-rule="evenodd" stroke="#56330f" stroke-width="2.66667" stroke-linecap="round" d="M 459.983,361.005 C 479.257,382.535 562.585,396.757 554.667,474.867 C 543.577,459.177 528.655,441.629 511.003,439.067 C 443.192,430.927 427.032,356.772 459.983,361.005 Z "/>
			<path id="dp_path014" fill="#eb9b36" fill-rule="evenodd" stroke="none" stroke-width="0" d="M 100.667,467.667 C 6.76,570.959 123.661,673.757 239.067,592.867"/>
			<path id="dp_path015" fill="#ac7228" fill-rule="evenodd" stroke="none" stroke-width="0" d="M 105.985,459.267 C 15.6867,568.183 160.363,635.628 238.667,591.667"/>
			<path id="dp_path016" fill="#eb9b36" fill-rule="evenodd" stroke="none" stroke-width="0" d="M 143.467,63.8667 C 126.133,55.768 108.287,46.9373 95.22,31.3707 C 88.82,38.9707 59.8893,76.0893 110.823,117.289 C 105.847,125.748 101.733,134.208 100.167,142.667 C 97.5053,148.339 90.7547,152.915 91.1667,159.167 C -6.92933,205.852 114.892,273.76 109.667,286.667 L 119.467,292.467 C 122.519,317.889 167.152,307.111 194.267,295.267 C 221.381,283.423 236.067,284.703 243.867,285.667 C 291.763,321.001 386.088,222.575 324.747,156.947 C 325.545,147.88 324.215,139.027 320.747,130.387 C 327.247,132.015 331.167,131.304 337.667,128.167 C 346.768,114 356.231,99.8333 366.667,85.6667 C 366.475,68.168 364.876,52.3107 356.667,44.1667 C 339.833,44.08 323,47.4187 306.167,52.6667 C 297.333,61.928 296.5,62.672 287.667,69.2667 C 276.748,59.9267 262.719,54.94 246.467,53.0667 L 159.867,62.2667 C 153.804,62.04 143.467,63.8667 143.467,63.8667 Z "/>
			<path id="dp_path017" fill="#ac7228" fill-rule="evenodd" stroke="none" stroke-width="0" d="M 288.427,69.7467 L 279.307,76.3067 C 269.053,70.5547 257.676,65.1493 241.867,61.1067 L 248.427,58.5467 C 249.093,57.1867 243.809,52.42 245.867,52.9467 C 266.633,55.4133 276.913,62.8733 288.427,69.7467 Z "/>
			<path id="dp_path018" fill="white" fill-rule="evenodd" stroke="none" stroke-width="0" d="M 320,153 C 279.651,150.088 238.191,189.855 187.279,181.923 C 182.804,162.909 94.4093,142.845 89.8293,181.157 C 77.9293,181.019 93.5307,159.103 91.1667,159.167 C -6.92933,205.852 114.892,273.76 109.667,286.667 L 119.467,292.467 C 122.519,317.889 167.152,307.111 194.267,295.267 C 221.381,283.423 236.067,284.703 243.867,285.667 C 291.763,321.001 390.841,221.628 320,153 Z "/>
			<path id="dp_path019" fill="#d6d6d6" fill-rule="evenodd" stroke="none" stroke-width="0" d="M 243.867,285.667 C 291.763,321.001 391.008,221.795 320.167,153.167 C 346.079,218.024 309.673,252.319 246.208,281.159 C 245.489,280.433 244.051,278.984 242.637,278.607 L 223.601,275.117 C 203.231,278.775 184.223,284.021 168.968,293.648 C 149.425,294.128 116.092,279.271 106.348,277.993 L 110.501,285.98 C 108.952,287.396 114.693,291.547 120.087,295.565 C 123.024,316.129 158.892,309.5 194.528,295.884 C 210.345,289.703 243.867,285.667 243.867,285.667 Z "/>
			<path id="dp_path020" fill="#d6d6d6" fill-rule="evenodd" stroke="none" stroke-width="0" d="M 90.3747,160.103 C -4.388,201.969 111.409,276.911 109.544,284.383 C 78.6693,241.751 29.0213,200.771 90.3747,160.103 Z "/>
			<path id="dp_path021" fill="#d6d6d6" fill-rule="evenodd" stroke="none" stroke-width="0" d="M 103.337,203.791 L 116.764,218.241 L 130.703,259.545 L 120.089,260.312 C 114.689,241.167 104.031,219.369 103.337,203.791 Z "/>
			<path id="dp_path022" fill="#d6d6d6" fill-rule="evenodd" stroke="none" stroke-width="0" d="M 208.905,215.373 L 176.317,261.38 L 172.519,259.673 C 180.841,242.631 185.808,223.989 186.969,203.536 L 194.769,200.211 Z "/>
			<path id="dp_path023" fill="#ac7228" fill-rule="evenodd" stroke="none" stroke-width="0" d="M 98.504,41.616 C 106.012,53.8213 129.004,70.144 161.513,62.5347 C 154.633,76.2827 123.155,101.424 110.239,116.872 C 90.4173,101.48 74.62,65.6813 98.504,41.616 Z "/>
			<path id="dp_path024" fill="#ff9f92" fill-rule="evenodd" stroke="none" stroke-width="0" d="M 350.664,58.0773 C 350.664,58.0773 350.757,60.1013 350.757,60.1013 C 349.265,77.4187 338.476,89.964 332.432,104.883 C 329.515,108.628 324.404,110.639 317.227,111.827 C 309.187,103.644 300.467,96.596 291.147,90.5467 C 318.736,87.272 332.64,64.3747 350.664,58.0773 Z "/>
			<path id="dp_path025" fill="#9f635b" fill-rule="evenodd" stroke="none" stroke-width="0" d="M 346.067,61.2667 C 346.067,61.2667 339.3,83.9827 326.507,98.0667 C 324,101.1 320.033,107.405 313.867,108.367 C 307.416,102.437 295.581,92.972 292.193,90.7773 C 292.917,89.6293 296.276,88.648 301.267,87.7667 C 318.237,86.152 330.579,66.3667 346.067,61.2667 Z "/>
			<path id="dp_path026" fill="#330000" fill-rule="evenodd" stroke="none" stroke-width="0" d="M 188.107,202.867 C 185.708,221.352 180.692,241.448 172.747,260.787 L 130.027,259.347 C 125.827,245.6 121.108,231.335 115.627,216.307 C 123.799,225.196 129.535,220.007 133.867,206.707 L 133.867,206.707 C 147.452,235.063 167.919,219.288 188.107,202.867 Z "/>
			<path id="dp_path027" fill="#6c0000" fill-rule="evenodd" stroke="none" stroke-width="0" d="M 175.067,253.267 L 172.747,260.787 L 130.027,259.347 C 134.675,257.053 121.968,230.333 175.067,253.267 Z "/>
			<path id="dp_path028" fill="#695d37" fill-rule="evenodd" stroke="none" stroke-width="0" d="M 124.24,221.124 C 125.553,229.448 128.18,246.097 130.629,249.239 C 133.079,252.38 134.789,240.075 138.936,239.975 C 143.356,239.868 152.303,252.328 157.148,248.6 C 161.989,240.707 165.901,230.961 168.011,217.609 C 154.327,227.603 142.767,222.231 133.516,205.965 C 130.296,216.765 127.46,219.284 124.24,221.124 Z "/>
			<path id="dp_path029" fill="none" fill-rule="evenodd" stroke="#a9a963" stroke-width="2.66667" stroke-linecap="round" d="M 124.24,221.124 C 125.553,229.448 128.18,246.097 130.629,249.239 C 133.079,252.38 134.789,240.075 138.936,239.975 C 143.356,239.868 152.303,252.328 157.148,248.6 C 161.993,244.872 166.005,226.697 168.011,217.609"/>
			<path id="dp_path030" fill="#a9a963" fill-rule="evenodd" stroke="none" stroke-width="0" d="M 155.067,228.467 C 159.035,227.22 160.712,228.407 157.707,235.187 C 155.845,239.387 155.96,243.987 153.707,243.987 C 144.867,237.232 135.844,229.691 131.169,240.98 C 129.821,236.384 128.725,231.788 128.401,227.192 C 128.635,222.223 131.501,219.295 132.9,219.625 C 134.299,219.956 135.764,229.097 136.795,229.173 C 137.825,229.249 136.265,220.467 139.084,220.083 C 143.443,224.668 149.641,228.681 155.067,228.467 Z "/>
			<path id="dp_path031" fill="none" fill-rule="evenodd" stroke="#56330f" stroke-width="2.66667" stroke-linecap="round" d="M 144.677,64.576 C 127.344,56.4773 108.287,46.9373 95.22,31.3707 C 88.82,38.9707 59.0507,75.4173 109.984,116.617"/>
			<path id="dp_path032" fill="none" fill-rule="evenodd" stroke="#56330f" stroke-width="2.66667" stroke-linecap="round" d="M 100.167,137.167 C 110.491,105.279 165.267,70.7453 159.728,62.536"/>
			<path id="dp_path033" fill="none" fill-rule="evenodd" stroke="#56330f" stroke-width="2.66667" stroke-linecap="round" d="M 100.167,142.667 C 97.0293,146.083 90.7547,152.915 91.1667,159.167 C -6.92933,205.852 114.892,273.76 109.667,286.667"/>
			<path id="dp_path034" fill="none" fill-rule="evenodd" stroke="#56330f" stroke-width="2.66667" stroke-linecap="round" d="M 119.467,292.467 C 122.519,317.889 167.152,307.111 194.267,295.267"/>
			<path id="dp_path035" fill="none" fill-rule="evenodd" stroke="#56330f" stroke-width="2.66667" stroke-linecap="round" d="M 320,153 C 390.841,221.628 291.763,321.001 243.867,285.667"/>
			<path id="dp_path036" fill="none" fill-rule="evenodd" stroke="#56330f" stroke-width="2.66667" stroke-linecap="round" d="M 246.667,53.2667 C 267.267,54.0667 287.267,68.8667 287.267,68.8667"/>
			<path id="dp_path037" fill="none" fill-rule="evenodd" stroke="#56330f" stroke-width="2.66667" stroke-linecap="round" d="M 290.467,89.5667 C 315.328,90.448 335.072,63.22 353.096,56.9227"/>
			<path id="dp_path038" fill="none" fill-rule="evenodd" stroke="#56330f" stroke-width="2.66667" stroke-linecap="round" d="M 317.531,111.54 C 324.708,110.352 329.515,108.628 332.432,104.883 C 338.476,89.964 349.265,77.4187 350.757,60.1013"/>
			<path id="dp_path039" fill="none" fill-rule="evenodd" stroke="#56330f" stroke-width="2.66667" stroke-linecap="round" d="M 279.667,76.6667 C 288.5,70.072 297.333,61.928 306.167,52.6667 C 323,47.4187 339.833,44.08 356.667,44.1667 C 364.876,52.3107 366.475,68.168 366.667,85.6667 C 356.231,99.8333 346.768,114 337.667,128.167 C 332.839,132.547 323.057,130.627 318.167,129.667"/>
			<path id="dp_path040" fill="none" fill-rule="evenodd" stroke="#56330f" stroke-width="2.66667" stroke-linecap="round" d="M 119.932,260.495 C 144.959,257.725 176.82,261.26 176.82,261.26"/>
			<path id="dp_path041" fill="none" fill-rule="evenodd" stroke="#56330f" stroke-width="2.66667" stroke-linecap="round" d="M 187.667,204.067 C 183.753,236.124 172.737,259.729 172.737,259.729"/>
			<path id="dp_path042" fill="none" fill-rule="evenodd" stroke="#56330f" stroke-width="2.66667" stroke-linecap="round" d="M 115.295,216.651 C 122.325,231.028 130.391,259.473 130.391,259.473"/>
			<path id="dp_path043" fill="none" fill-rule="evenodd" stroke="#56330f" stroke-width="2.66667" stroke-linecap="round" d="M 181.667,195.189 C 195.868,196.295 208.708,214.576 208.708,214.576"/>
			<path id="dp_path044" fill="none" fill-rule="evenodd" stroke="#56330f" stroke-width="2.66667" stroke-linecap="round" d="M 73.1667,611.667 C 50.62,614.085 44.876,623.58 47.6667,636.667 C 46.9173,639.5 59.4173,627.277 68.6667,628.667"/>
			<path id="dp_path045" fill="none" fill-rule="evenodd" stroke="#56330f" stroke-width="2.66667" stroke-linecap="round" d="M 90.056,615.055 C 87.12,614.796 81.248,614.279 78.2347,616.971 C 69.5253,619.515 67.668,629.336 68.3307,638.696 C 76.1253,633.365 81.952,626.556 96.1253,629.431"/>
			<path id="dp_path046" fill="none" fill-rule="evenodd" stroke="#56330f" stroke-width="2.66667" stroke-linecap="round" d="M 102.267,617.667 C 95.516,623.333 94.064,631.665 97.0667,641.667 C 108.643,632.076 128.624,641.604 122.667,626.467"/>
			<path id="dp_path047" fill="none" fill-rule="evenodd" stroke="#56330f" stroke-width="2.66667" stroke-linecap="round" d="M 100.667,467.667 C 6.76,570.959 123.661,673.757 239.067,592.867"/>
			<path id="dp_path048" fill="none" fill-rule="evenodd" stroke="#56330f" stroke-width="2.66667" stroke-linecap="round" d="M 333.767,613.867 C 309.993,612.073 302.86,623.983 301.767,640.867 C 316.029,632.243 341.092,644.193 342.767,631.367"/>
			<path id="dp_path049" fill="none" fill-rule="evenodd" stroke="#56330f" stroke-width="2.66667" stroke-linecap="round" d="M 357.067,611.267 L 346.267,616.867 C 342.809,624.356 341.048,632.573 345.067,643.267 C 362.317,636.263 392.6,642.255 385.867,618.867"/>
			<path id="dp_path050" fill="none" fill-rule="evenodd" stroke="#56330f" stroke-width="2.66667" stroke-linecap="round" d="M 387.667,616.667 C 385.075,626.833 385.952,637 398.167,647.167 C 411.4,637.315 440.331,630.404 416.167,619.667"/>
			<path id="dp_path051" fill="none" fill-rule="evenodd" stroke="#56330f" stroke-width="2.66667" stroke-linecap="round" d="M 365.067,518.067 C 345.667,663.759 60.844,580.851 85.0667,398.867 C 101.956,370.863 111.187,336.005 87.4667,271.667 C 95.6987,144.724 297.768,176.744 344.667,220.067 C 376.627,240.047 402.364,267.625 425.333,293 C 414.889,284.687 404.444,277.517 394,276.333 C 411.76,314.783 444.472,322.115 468.667,355.667 C 458.667,347.397 448.667,341.397 438.667,341.667 C 464.724,362.04 477.813,381.693 484.667,401"/>
			<path id="dp_path052" fill="none" fill-rule="evenodd" stroke="#56330f" stroke-width="2.66667" stroke-linecap="round" d="M 458.667,375 C 648.156,558.996 402.363,649.688 316.667,581.667"/>
			<path id="dp_path053" fill="#ff9f92" fill-rule="evenodd" stroke="#88554e" stroke-width="2.66667" stroke-linecap="round" d="M 108.451,173.989 C 121.764,172.723 148.391,170.189 154.272,175.119 L 131.507,196.309 C 124.413,189.132 109.395,181.173 108.451,173.989 Z "/>
			<path id="dp_path054" fill="none" fill-rule="evenodd" stroke="#56330f" stroke-width="2.66667" stroke-linecap="round" d="M 104.067,204.267 C 117.797,220.419 128.211,230.036 133.452,205.903 C 153.488,243.164 173.731,208.076 193.067,200.867"/>
			<path id="dp_path055" fill="black" fill-rule="evenodd" stroke="none" stroke-width="0" d="M 115.667,129.265 C 125.276,129.265 133.067,134.996 133.067,142.065 C 133.067,149.135 125.276,154.865 115.667,154.865 C 106.057,154.865 98.2667,149.135 98.2667,142.065 C 98.2667,134.996 106.057,129.265 115.667,129.265 Z "/>
			<path id="dp_path056" fill="black" fill-rule="evenodd" stroke="none" stroke-width="0" d="M 215.267,132.867 C 224.876,132.867 232.667,139.403 232.667,147.467 C 232.667,155.531 224.876,162.067 215.267,162.067 C 205.657,162.067 197.867,155.531 197.867,147.467 C 197.867,139.403 205.657,132.867 215.267,132.867 Z "/>
			<path id="dp_path057" fill="white" fill-rule="evenodd" stroke="none" stroke-width="0" d="M 218.067,144.467 C 220.165,144.467 221.867,146.168 221.867,148.267 C 221.867,150.365 220.165,152.067 218.067,152.067 C 215.968,152.067 214.267,150.365 214.267,148.267 C 214.267,146.168 215.968,144.467 218.067,144.467 Z "/>
			<path id="dp_path058" fill="white" fill-rule="evenodd" stroke="none" stroke-width="0" d="M 118.467,138.067 C 120.565,138.067 122.267,139.768 122.267,141.867 C 122.267,143.965 120.565,145.667 118.467,145.667 C 116.368,145.667 114.667,143.965 114.667,141.867 C 114.667,139.768 116.368,138.067 118.467,138.067 Z "/>
			<path id="dp_path059" fill="none" fill-rule="evenodd" stroke="#56330f" stroke-width="2.66667" stroke-linecap="round" d="M 90.6667,180.333 C 87.9787,153.637 164.948,151.841 187.867,182.067"/>
			<path id="dp_path060" fill="none" fill-rule="evenodd" stroke="#56330f" stroke-width="2.22468" stroke-linecap="round" d="M 283.027,86.9387 C 297.191,90.24 321.684,116.652 321.684,116.652"/>
			<path id="dp_path061" fill="#c9a582" fill-rule="evenodd" stroke="none" stroke-width="0" d="M 171.525,65.2133 L 171.525,65.2133 C 164.639,58.848 138.369,63.5413 142.452,66.812 C 145.096,59.4573 148.431,49.884 184.624,53.712 C 184.707,46.9333 170.816,38.232 152.995,32.3067 C 177.549,20.5733 189.599,33.8587 204.752,40.9333 C 209.216,41.7387 211.687,39.7013 210.183,31.9867 C 229.859,33.796 241.944,43.7027 248.841,59.144 L 238.617,60.7413 C 240.053,61.7067 249.967,63.176 254.272,65.2133"/>
			<path id="dp_path062" fill="none" fill-rule="evenodd" stroke="#9b8065" stroke-width="2.66667" stroke-linecap="round" d="M 171.525,65.2133 L 171.525,65.2133 C 164.639,58.848 138.369,63.5413 142.452,66.812 C 145.096,59.4573 148.431,49.884 184.624,53.712 C 184.707,46.9333 170.816,38.232 152.995,32.3067 C 177.549,20.5733 189.599,33.8587 204.752,40.9333 C 209.216,41.7387 211.687,39.7013 210.183,31.9867 C 229.859,33.796 241.944,43.7027 248.841,59.144 L 238.617,60.7413 C 240.053,61.7067 249.967,63.176 254.272,65.2133"/>
		</g>
	</g>
</svg>