<?xml version="1.0" encoding="UTF-8" standalone="no"?>
<svg version="1.1" xmlns="http://www.w3.org/2000/svg" xmlns:xlink="http://www.w3.org/1999/xlink" xmlns:i="http://ns.adobe.com/AdobeIllustrator/10.0/" width="550" height="650">
	<defs>
		<clipPath id="clip_dp_001" clipPathUnits="userSpaceOnUse" clip-rule="nonzero">
			<path d="M 0,0 L 550,0 L 550,650 L 0,650 Z " clip-rule="nonzero"/>
		</clipPath>
	</defs>
	<g id="dp_dp001" clip-path="url(#clip_dp_001)">
		<g id="clip" i:layer="yes">
			<image id="dp_image002" transform="matrix(1,0,0,1,3.17333,2.54933)" fill="none" fill-opacity="0.239216" x="0" y="0" width="532" height="620" xlink:href="Draw3B19_images/Draw3B19_001.png"/>
			<path id="dp_path003" fill="black" fill-rule="evenodd" stroke="none" stroke-width="0" d="M 89,117.599 C 98.6093,117.599 106.4,123.329 106.4,130.399 C 106.4,137.468 98.6093,143.199 89,143.199 C 79.3907,143.199 71.6,137.468 71.6,130.399 C 71.6,123.329 79.3907,117.599 89,117.599 Z "/>
			<path id="dp_path004" fill="black" fill-rule="evenodd" stroke="none" stroke-width="0" d="M 188.6,121.2 C 198.209,121.2 206,127.736 206,135.8 C 206,143.864 198.209,150.4 188.6,150.4 C 178.991,150.4 171.2,143.864 171.2,135.8 C 171.2,127.736 178.991,121.2 188.6,121.2 Z "/>
			<path id="dp_path005" fill="white" fill-rule="evenodd" stroke="none" stroke-width="0" d="M 191.4,132.8 C 193.499,132.8 195.2,134.501 195.2,136.6 C 195.2,138.699 193.499,140.4 191.4,140.4 C 189.301,140.4 187.6,138.699 187.6,136.6 C 187.6,134.501 189.301,132.8 191.4,132.8 Z "/>
			<path id="dp_path006" fill="white" fill-rule="evenodd" stroke="none" stroke-width="0" d="M 91.8,126.4 C 93.8987,126.4 95.6,128.101 95.6,130.2 C 95.6,132.299 93.8987,134 91.8,134 C 89.7013,134 88,132.299 88,130.2 C 88,128.101 89.7013,126.4 91.8,126.4 Z "/>
			<path id="dp_path007" fill="none" fill-rule="evenodd" stroke="black" stroke-width="2.66667" stroke-linecap="round" d="M 144.859,53.5467 L 144.859,53.5467 C 137.972,47.1813 111.703,51.8747 115.785,55.1453 C 118.429,47.7907 121.764,38.2173 157.957,42.0453 C 158.04,35.2667 144.149,26.5653 126.328,20.64 C 150.883,8.90667 162.932,22.192 178.085,29.2667 C 182.549,30.072 185.02,28.0347 183.516,20.32 C 203.192,22.1293 215.277,32.036 222.175,47.4773 L 211.951,49.0747 C 213.387,50.04 223.3,51.5093 227.605,53.5467"/>
			<path id="dp_path008" fill="none" fill-rule="evenodd" stroke="black" stroke-width="2.66667" stroke-linecap="round" d="M 118.011,52.9093 C 100.677,44.8107 81.62,35.2707 68.5533,19.704 C 62.1533,27.304 32.384,63.7507 83.3173,104.951"/>
			<path id="dp_path009" fill="none" fill-rule="evenodd" stroke="black" stroke-width="2.66667" stroke-linecap="round" d="M 73.5,125.5 C 83.824,93.612 138.6,59.0787 133.061,50.8693"/>
			<path id="dp_path010" fill="none" fill-rule="evenodd" stroke="black" stroke-width="2.66667" stroke-linecap="round" d="M 73.5,131 C 70.3627,134.416 64.088,141.248 64.5,147.5 C -33.596,194.185 88.2253,262.093 83,275"/>
			<path id="dp_path011" fill="none" fill-rule="evenodd" stroke="black" stroke-width="2.66667" stroke-linecap="round" d="M 92.8,280.8 C 95.852,306.223 140.485,295.444 167.6,283.6"/>
			<path id="dp_path012" fill="none" fill-rule="evenodd" stroke="black" stroke-width="2.66667" stroke-linecap="round" d="M 293.333,141.333 C 364.175,209.961 265.096,309.335 217.2,274"/>
			<path id="dp_path013" fill="none" fill-rule="evenodd" stroke="black" stroke-width="2.66667" stroke-linecap="round" d="M 220,41.6 C 240.6,42.4 260.6,57.2 260.6,57.2"/>
			<path id="dp_path014" fill="none" fill-rule="evenodd" stroke="black" stroke-width="2.66667" stroke-linecap="round" d="M 272.348,75.3573 C 292.097,73.3627 308.405,51.5533 326.429,45.256"/>
			<path id="dp_path015" fill="none" fill-rule="evenodd" stroke="black" stroke-width="2.66667" stroke-linecap="round" d="M 286.888,101.124 C 294.065,99.936 302.848,96.9613 305.765,93.216 C 311.809,78.2973 322.599,65.752 324.091,48.4347"/>
			<path id="dp_path016" fill="none" fill-rule="evenodd" stroke="black" stroke-width="2.66667" stroke-linecap="round" d="M 253,65 C 261.833,58.4053 270.667,50.2613 279.5,41 C 296.333,35.752 313.167,32.4133 330,32.5 C 338.209,40.644 339.808,56.5013 340,74 C 329.564,88.1667 320.101,102.333 311,116.5 C 306.172,120.88 296.391,118.96 291.5,118"/>
			<path id="dp_path017" fill="none" fill-rule="evenodd" stroke="black" stroke-width="2.66667" stroke-linecap="round" d="M 93.2653,248.828 C 118.292,246.059 150.153,249.593 150.153,249.593"/>
			<path id="dp_path018" fill="none" fill-rule="evenodd" stroke="black" stroke-width="2.66667" stroke-linecap="round" d="M 161.2,196.4 C 157.287,228.457 146.071,248.063 146.071,248.063"/>
			<path id="dp_path019" fill="none" fill-rule="evenodd" stroke="black" stroke-width="2.66667" stroke-linecap="round" d="M 88.628,204.984 C 95.6587,219.361 103.724,247.807 103.724,247.807"/>
			<path id="dp_path020" fill="none" fill-rule="evenodd" stroke="black" stroke-width="2.66667" stroke-linecap="round" d="M 77.4,192.6 C 91.1307,208.752 101.544,218.369 106.785,194.236 C 126.821,231.497 147.064,196.409 166.4,189.2"/>
			<path id="dp_path021" fill="none" fill-rule="evenodd" stroke="black" stroke-width="2.66667" stroke-linecap="round" d="M 155,183.523 C 169.201,184.628 182.041,202.909 182.041,202.909"/>
			<path id="dp_path022" fill="none" fill-rule="evenodd" stroke="black" stroke-width="2.66667" stroke-linecap="round" d="M 46.5,600 C 23.9533,602.419 18.2093,611.913 21,625 C 20.2507,627.833 32.7507,615.611 42,617"/>
			<path id="dp_path023" fill="none" fill-rule="evenodd" stroke="black" stroke-width="2.66667" stroke-linecap="round" d="M 63.3893,603.388 C 60.4533,603.129 54.5813,602.612 51.568,605.304 C 42.8587,607.848 41.0013,617.669 41.664,627.029 C 49.4587,621.699 55.2853,614.889 69.4587,617.764"/>
			<path id="dp_path024" fill="none" fill-rule="evenodd" stroke="black" stroke-width="2.66667" stroke-linecap="round" d="M 75.6,606 C 68.8493,611.667 67.3973,619.999 70.4,630 C 81.976,620.409 101.957,629.937 96,614.8"/>
			<path id="dp_path025" fill="none" fill-rule="evenodd" stroke="black" stroke-width="2.66667" stroke-linecap="round" d="M 74,456 C -19.9067,559.292 96.9947,662.091 212.4,581.2"/>
			<path id="dp_path026" fill="none" fill-rule="evenodd" stroke="black" stroke-width="2.66667" stroke-linecap="round" d="M 307.1,602.2 C 283.327,600.407 276.193,612.316 275.1,629.2 C 289.363,620.576 314.425,632.527 316.1,619.7"/>
			<path id="dp_path027" fill="none" fill-rule="evenodd" stroke="black" stroke-width="2.66667" stroke-linecap="round" d="M 330.4,599.6 L 319.6,605.2 C 316.143,612.689 314.381,620.907 318.4,631.6 C 335.651,624.596 365.933,630.588 359.2,607.2"/>
			<path id="dp_path028" fill="none" fill-rule="evenodd" stroke="black" stroke-width="2.66667" stroke-linecap="round" d="M 361,605 C 358.408,615.167 359.285,625.333 371.5,635.5 C 384.733,625.648 413.664,618.737 389.5,608"/>
			<path id="dp_path029" fill="none" fill-rule="evenodd" stroke="black" stroke-width="2.66667" stroke-linecap="round" d="M 458.4,361.6 C 471.297,382.364 535.919,385.091 528,463.2 C 516.911,447.511 506.452,430.563 488.8,428"/>
			<path id="dp_path030" fill="none" fill-rule="evenodd" stroke="black" stroke-width="2.66667" stroke-linecap="round" d="M 338.4,506.4 C 319,652.092 34.1773,569.184 58.4,387.2 C 75.2893,359.196 84.52,324.339 60.8,260"/>
			<path id="dp_path031" fill="none" fill-rule="evenodd" stroke="black" stroke-width="2.66667" stroke-linecap="round" d="M 432,363.333 C 621.489,547.329 375.696,638.021 290,570"/>
			<path id="dp_path032" fill="none" fill-rule="evenodd" stroke="black" stroke-width="2.66667" stroke-linecap="round" d="M 320.667,210.667 C 352.627,230.647 375.697,255.959 398.667,281.333 C 388.223,273.02 377.777,265.851 367.333,264.667 C 385.093,303.116 417.805,310.448 442,344 C 432,335.731 422,329.731 412,330 C 438.057,350.373 451.147,370.027 458,389.333"/>
			<path id="dp_path033" fill="none" fill-rule="evenodd" stroke="black" stroke-width="2.66667" stroke-linecap="round" d="M 97.5733,209.457 C 98.8867,217.781 101.513,234.431 103.963,237.572 C 106.412,240.713 108.123,228.408 112.269,228.308 C 116.689,228.201 125.636,240.661 130.481,236.933 C 135.327,233.205 139.339,215.031 141.344,205.943"/>
			<path id="dp_path034" fill="none" fill-rule="evenodd" stroke="black" stroke-width="2.66667" stroke-linecap="round" d="M 287.031,304.667 C 278.58,345.592 255.972,373.435 225.369,389.651 C 234.361,390.903 241.589,389.072 247.857,385.563 C 245.131,389.815 242.079,394.067 238.673,398.319 C 245.815,396.445 252.195,393.813 257.296,389.9 C 257.533,394.036 254.767,397.671 250.919,401.124 L 276.173,395.767 C 323.448,401.604 357.589,373.583 359.236,333.101"/>
			<path id="dp_path035" fill="none" fill-rule="evenodd" stroke="black" stroke-width="2.66667" stroke-linecap="round" d="M 50.4,278.4 C -23.2413,337.056 79.18,371.599 102.959,400.359 C 103.22,395.067 102.952,396.101 93.6,384.4 C 99.8667,386.105 102.305,383.672 108.572,389.645 C 108.761,383.112 108.477,382.133 101.2,375.6 L 112.653,377.4 C 114.308,370.78 112.447,374.845 100.4,364.8 C 77.284,355.135 84.4133,319.131 92,305.6"/>
			<path id="dp_path036" fill="black" fill-rule="evenodd" stroke="blue" stroke-width="2.66667" stroke-linecap="round" d="M 81.784,162.323 C 92.5853,161.943 114.187,161.184 120.068,163.973 L 104.84,184.643 C 97.7467,177.465 82.728,169.507 81.784,162.323 Z "/>
		</g>
	</g>
</svg>