<?xml version="1.0" encoding="UTF-8" standalone="no"?>
<svg version="1.1" xmlns="http://www.w3.org/2000/svg" xmlns:xlink="http://www.w3.org/1999/xlink" xmlns:i="http://ns.adobe.com/AdobeIllustrator/10.0/" width="200" height="200">
	<defs>
		<clipPath id="clip_dp_001" clipPathUnits="userSpaceOnUse" clip-rule="nonzero">
			<path d="M 0,0 L 200,0 L 200,200 L 0,200 Z " clip-rule="nonzero"/>
		</clipPath>
	</defs>
	<g id="dp_dp001" clip-path="url(#clip_dp_001)">
		<g id="clip" i:layer="yes">
			<path id="dp_path002" fill="#c9c967" fill-rule="evenodd" stroke="#7b7b3f" stroke-width="2.46031" stroke-linecap="round" d="M 100,5.00133 L 111.888,24.9373 L 129.356,9.652 L 134.503,32.2853 L 155.839,23.1453 L 153.739,46.2613 L 176.855,44.1613 L 167.715,65.4973 L 190.348,70.644 L 175.063,88.112 L 194.999,100 L 175.063,111.888 L 190.348,129.356 L 167.715,134.503 L 176.855,155.839 L 153.739,153.739 L 155.839,176.855 L 134.503,167.715 L 129.356,190.348 L 111.888,175.063 L 100,194.999 L 88.112,175.063 L 70.644,190.348 L 65.4973,167.715 L 44.1613,176.855 L 46.2613,153.739 L 23.1453,155.839 L 32.2853,134.503 L 9.652,129.356 L 24.9373,111.888 L 5.00133,100 L 24.9373,88.112 L 9.652,70.644 L 32.2853,65.4973 L 23.1453,44.1613 L 46.2613,46.2613 L 44.1613,23.1453 L 65.4973,32.2853 L 70.644,9.652 L 88.112,24.9373 Z "/>
		</g>
	</g>
</svg>